<svg xmlns="http://www.w3.org/2000/svg" viewBox="0 0 200 200">
  <defs>
    <linearGradient id="og" x1="0%" y1="0%" x2="100%" y2="100%">
      <stop offset="0%" stop-color="#FF4D00"/>
      <stop offset="50%" stop-color="#FF6A00"/>
      <stop offset="100%" stop-color="#FF2A4D"/>
    </linearGradient>
    <linearGradient id="ob" x1="0%" y1="0%" x2="100%" y2="100%">
      <stop offset="0%" stop-color="#00B4D8"/>
      <stop offset="100%" stop-color="#0077B6"/>
    </linearGradient>
  </defs>
  <rect width="200" height="200" rx="36" fill="white"/>
  <g transform="translate(35,11) scale(1.778)">
    <circle cx="12" cy="12" r="5" stroke="url(#og)" stroke-width="3" fill="none"/>
    <path d="M70 15.4A40 40 0 0 0 10.1 47L28.2 47A22 22 0 0 1 61 30.9Z" fill="url(#og)"/>
    <path d="M10.1 53A40 40 0 0 0 70 84.6L61 69.1A22 22 0 0 1 28.2 53Z" fill="url(#ob)"/>
    <path d="M62.6 47A13 13 0 0 0 37.4 47Z" fill="url(#og)"/>
    <path d="M37.4 53A13 13 0 0 0 62.6 53Z" fill="url(#ob)"/>
  </g>
</svg>
